Coordinates
version=1
nRows=8
nColumns=42
inDegrees=yes

Units are S.I. units (second, meters, Newtons, ...)
If the header above contains a line with 'inDegrees', this indicates whether rotational values are in degrees (yes) or radians (no).

endheader
time	pelvis_tilt	pelvis_list	pelvis_rotation	pelvis_tx	pelvis_ty	pelvis_tz	hip_flexion_r	hip_adduction_r	hip_rotation_r	knee_angle_r	knee_angle_r_beta	ankle_angle_r	subtalar_angle_r	mtp_angle_r	hip_flexion_l	hip_adduction_l	hip_rotation_l	knee_angle_l	knee_angle_l_beta	ankle_angle_l	subtalar_angle_l	mtp_angle_l	lumbar_extension	lumbar_bending	lumbar_rotation	sh_tx_r	sh_ty_r	sh_tz_r	sh_plane_elev_r	sh_elev_r	sh_axial_rot_r	elbow_flex_r	pro_sup_r	sh_tx_l	sh_ty_l	sh_tz_l	sh_plane_elev_l	sh_elev_l	sh_axial_rot_l	elbow_flex_l	pro_sup_l
      0.00000000	     -3.71212689	     -1.56418645	     -0.24476182	      0.30242824	      0.92799452	     -0.05594454	      0.62968860	     -5.94613037	     -3.33959373	      2.40129031	      0.04191042	     -3.12738921	     -8.87666339	     -4.92017701	      1.73783810	     -6.60524665	     -5.71801817	      7.08478308	      0.12365279	     11.71163454	     -5.05348366	     -4.92017701	      1.12326450	      0.94176632	     -2.88903940	      0.00208746	     -0.01814450	     -0.00553610	      5.56985311	      6.12729989	      0.44850760	     26.12940512	     79.63836265	      0.00026065	     -0.01749499	     -0.00461206	     13.29656345	      7.90556805	     -2.52107193	     23.88412998	     70.49730505
      0.01694910	     -5.80339668	     -1.28022676	     -0.78243600	      0.30469122	      0.92241262	     -0.05585298	      2.77976696	     -6.32636604	     -3.64323936	      2.01442013	      0.03515826	      0.53169482	     -3.77420528	     -6.25447925	      3.94581514	     -6.17324252	     -5.88032437	      5.97777403	      0.10433184	     11.81268220	     -3.51404305	     -6.25447925	      4.62418234	      0.83407990	     -3.34674433	      0.00145080	     -0.01773767	     -0.00574943	     -1.78795340	      4.90794019	      1.39813823	     26.13016392	     80.43041873	     -0.00009928	     -0.01693385	     -0.00470348	      1.85379461	      6.20559405	     -1.57810552	     24.82354190	     74.96590638
      0.03389830	     -6.40549215	     -0.27320165	     -1.06758272	      0.30918629	      0.92066266	     -0.05962432	      3.06644611	     -7.80984245	     -3.74831903	      1.34087587	      0.02340270	      0.73557403	     -2.86567167	     -6.26511856	      4.02115421	     -4.91436020	     -6.35311203	      5.15012256	      0.08988660	     11.27760902	     -3.06823690	     -6.26511856	      5.47752202	     -0.31037830	     -3.70437988	     -0.00102164	     -0.01768019	     -0.00550157	     -2.29219832	      4.56994768	      0.93023949	     26.31587484	     80.26312913	     -0.00407743	     -0.01705161	     -0.00466564	      1.54011765	      6.74979829	     -1.86444076	     24.83369590	     74.87652713
      0.05084750	     -6.31139247	      0.43180121	     -1.14186065	      0.30958484	      0.92112594	     -0.05935041	      2.83446157	     -8.85805914	     -4.40321501	      1.04016120	      0.01815424	      2.22592966	     -0.52248536	     -6.60894894	      3.22907518	     -4.00591304	     -6.63684987	      4.14508447	      0.07234537	     10.95374645	     -2.69438909	     -6.60894894	      5.61639025	     -0.96634156	     -4.02076866	     -0.00051610	     -0.01783256	     -0.00548908	     -5.95098539	      4.00419685	      2.53842539	     26.94456534	     77.99765556	     -0.00762578	     -0.01733338	     -0.00431416	      0.08500151	      6.71664168	     -1.65636315	     24.69272989	     72.81362551
      0.06779660	     -6.35634682	      0.73690244	     -1.30099332	      0.30889247	      0.92068852	     -0.05902699	      3.13675790	     -9.26539379	     -4.51973999	      1.36366493	      0.02380044	      3.09128095	     -0.11633906	     -6.74144144	      3.08146778	     -3.63732478	     -6.58937749	      3.81268178	      0.06654385	     10.81988281	     -2.73741780	     -6.74144144	      5.50835666	     -1.23271509	     -3.71993936	     -0.00182142	     -0.01601776	     -0.00530543	     -4.89783236	      4.31090335	      2.64566390	     27.53619807	     76.14239396	     -0.00787501	     -0.01534228	     -0.00469680	      1.33088743	      7.16622228	     -1.63730271	     25.02398027	     71.37272215
      0.08474580	     -6.09764787	      0.90851587	     -1.33605665	      0.30954987	      0.92155089	     -0.05894794	      2.48878470	     -9.43448515	     -4.46971181	      0.69858948	      0.01219269	      3.34398572	      0.43088339	     -6.79293761	      2.22120587	     -3.36559040	     -6.59530173	      2.81320352	      0.04909966	     10.44414560	     -2.51518903	     -6.79293761	      5.49038982	     -1.35535172	     -3.99430545	     -0.00066603	     -0.01800110	     -0.00516688	     -4.67478614	      4.04554699	      2.54371845	     27.59277932	     75.88135831	     -0.00880143	     -0.01758246	     -0.00410681	      1.22988376	      7.03655090	     -2.41309194	     25.20269253	     70.78631646
      0.10169490	     -5.98665242	      0.86844401	     -1.38044049	      0.30504199	      0.91893242	     -0.05350197	      2.43761957	     -9.27956272	     -4.38422862	      0.67481689	      0.01177778	      3.86391613	      0.11707876	     -6.82996382	      1.93463045	     -3.51771817	     -6.56126490	      2.33104179	      0.04068435	     10.41574950	     -2.50475296	     -6.82996382	      5.33692880	     -1.41733283	     -4.11004089	      0.00157066	     -0.01804935	     -0.00514203	     -3.61012534	      3.91648675	      2.40668275	     27.67817282	     75.56532271	     -0.00760496	     -0.01760438	     -0.00395625	      1.54980967	      7.49255808	     -2.90930257	     25.95173605	     70.13479316
      0.11864410	     -5.99279139	      0.78524473	     -1.46422385	      0.30526413	      0.91970318	     -0.05362818	      2.51991875	     -9.04290860	     -4.19358261	      0.65651096	      0.01145828	      3.93332714	     -0.51362542	     -6.93162745	      1.81664547	     -3.71835165	     -6.72720718	      1.96530207	      0.03430099	     10.31392079	     -2.19555547	     -6.93162745	      5.37120010	     -1.49571790	     -3.92189126	      0.00266586	     -0.01809376	     -0.00509814	     -2.30361091	      3.91026766	      2.49841017	     27.56839644	     74.71016752	     -0.00552661	     -0.01756145	     -0.00382664	      1.77604461	      7.76317037	     -3.56994736	     26.54362519	     68.98156966
